# xmcd CD database file
#
# Track frame offsets:
#	150
#	14160
#	35328
#	53411
#	72872
#	92440
#	109526
#	134294
#	154528
#	173360
#
# Disc length: 2500 seconds
#
# Revision: 0
# Processed by: cddbd v1.5.2PL0 Copyright (c) Steve Scherf et al.
# Submitted via: CDex 1.70beta2
#
DISCID=6d09c20a
DTITLE=Johnny Rawls - The Best Of Johnny Rawls (Disk 2)
DYEAR=2002
DGENRE=Blues
TTITLE0=It's Been A Long Time
TTITLE1=Stealing Your Love
TTITLE2=Say What You Meen
TTITLE3=Don't Let Your So Called Friends
TTITLE4=Lonely Street
TTITLE5=A Bluesman
TTITLE6=Man Is Under Pressure
TTITLE7=Jodi Man
TTITLE8=Caught Up
TTITLE9=Back To You
EXTD=YEAR: 2002
EXTT0=
EXTT1=
EXTT2=
EXTT3=
EXTT4=
EXTT5=
EXTT6=
EXTT7=
EXTT8=
EXTT9=
PLAYORDER=
